<?xml version="1.0" encoding="UTF-8"?>
<svg width="154px" height="85px" viewBox="0 0 154 85" version="1.1" xmlns="http://www.w3.org/2000/svg" xmlns:xlink="http://www.w3.org/1999/xlink">
    <title>logo </title>
    <g id="Page-1" stroke="none" stroke-width="1" fill="none" fill-rule="evenodd">
        <g id="ДАШБОРД_Гил-и-НП" transform="translate(-76.000000, -124.000000)">
            <g id="Group" transform="translate(32.000000, 121.000000)">
                <g id="Fill-103" transform="translate(44.366667, 3.630000)">
                    <path d="M34.03246,0.136609 C42.6254767,0.136609 50.47515,3.329799 56.4650533,8.59531567 L51.3927333,13.3961923 C46.69027,9.45925567 40.6382533,7.088059 34.03246,7.088059 C19.0724233,7.088059 6.93935,19.244929 6.93935,34.2340057 C6.93935,49.2230823 19.0724233,61.3799523 34.03246,61.3799523 C38.0419967,61.3799523 41.8474467,60.5043157 45.2713433,58.9393823 L35.40944,49.0565057 L40.11271,44.3443623 L55.8419033,60.2151257 C54.93521,61.1976457 53.8627467,61.9744657 52.75358,62.7077257 C47.3840033,66.2610923 40.9496267,68.332209 34.03246,68.332209 C15.2407567,68.332209 2.29268456e-14,53.062009 2.29268456e-14,34.2340057 C2.29268456e-14,15.4051957 15.2407567,0.136609 34.03246,0.136609" fill="#24376D"></path>
                    <polygon id="Fill-105" fill="#9B2122" points="72.1144673 33.5335367 54.9409373 16.3269333 60.073354 11.4703967 77.104104 28.5346233 95.1117273 10.4907 100.243337 15.3480433 82.0937407 33.5335367 99.994884 51.4677533 94.868114 56.3295333 77.104104 38.5320467 60.1705573 55.49907 55.180114 50.4997533"></polygon>
                    <g id="Group-110" transform="translate(57.956177, 0.000000)">
                        <path d="M61.3098127,0.136609 C80.1031293,0.136609 95.3422727,15.4051957 95.3422727,34.2340057 C95.3422727,53.062009 80.1031293,68.332209 61.3098127,68.332209 C56.8118393,68.332209 52.5187593,67.4565723 48.5890827,65.8670357 L48.5890827,83.947259 L41.708216,83.947259 L41.7219293,61.4126223 L46.428426,56.918279 C50.699726,59.7371757 55.813186,61.3799523 61.3098127,61.3799523 C76.2714627,61.3799523 88.402116,49.2230823 88.402116,34.2340057 C88.402116,19.244929 76.2714627,7.088059 61.3098127,7.088059 C55.434456,7.088059 49.995506,8.96557567 45.5556127,12.1511023 L40.435296,7.30505233 C46.1989293,2.81232233 53.4436027,0.136609 61.3098127,0.136609" id="Fill-106" fill="#24376D"></path>
                        <path d="M1.763333,62.7419283 L1.763333,71.7927283 L0.387966333,71.7927283 L0.387966333,61.466185 L5.686153,61.466185 L5.686153,62.7419283 L1.763333,62.7419283 Z M14.4207397,63.7607483 L9.224193,71.7927283 L7.96417967,71.7927283 L7.96417967,61.466185 L9.33873967,61.466185 L9.33873967,69.498165 L14.5356897,61.466185 L15.794493,61.466185 L15.794493,71.7927283 L14.4207397,71.7927283 L14.4207397,63.7607483 Z M22.096173,63.167445 L19.1429663,71.7927283 L17.6683797,71.7927283 L21.404053,61.466185 L22.7648997,61.466185 L26.500573,71.7927283 L25.0501863,71.7927283 L22.096173,63.167445 Z M35.7235963,69.3267483 L37.4409897,69.3267483 C36.5718063,71.1046417 35.0500297,71.9935883 32.873643,71.9935883 C31.3942163,71.9935883 30.1527563,71.4636083 29.1452297,70.4016317 C28.136493,69.3400583 27.634343,68.0635083 27.634343,66.572385 C27.634343,65.127645 28.1526263,63.882555 29.1875797,62.8342917 C30.2229363,61.7884483 31.4611697,61.2645183 32.9030863,61.2645183 C33.9235197,61.2645183 34.825373,61.494015 35.607033,61.953815 C36.428623,62.431765 37.0392697,63.125095 37.4409897,64.0321917 L35.8086997,64.0321917 C35.1105297,63.0956517 34.1336563,62.627785 32.873643,62.627785 C31.8431263,62.627785 30.9501463,63.0238583 30.1963163,63.8192317 C29.4424863,64.610975 29.0665797,65.5301717 29.0665797,66.572385 C29.0665797,67.6521083 29.4279663,68.5946983 30.1539663,69.3973317 C30.897713,70.229005 31.8044063,70.645245 32.873643,70.645245 C34.1336563,70.645245 35.0839097,70.206015 35.7235963,69.3267483 L35.7235963,69.3267483 Z" id="Fill-108" fill="#9B2122"></path>
                    </g>
                    <path d="M67.584308,84.3279653 L66.3964913,84.3279653 L66.3964913,76.969552 L67.6419847,76.969552 L67.6419847,82.4201987 L71.6361947,76.969552 L72.8232047,76.969552 L72.8232047,84.3279653 L71.5648047,84.3279653 L71.5648047,78.872882 L67.584308,84.3279653 Z M79.693988,79.7666687 L79.693988,84.3279653 L78.3347547,84.3279653 L78.3347547,74.000212 L79.693988,74.000212 L79.693988,78.4618853 L84.1036313,78.4618853 L84.1036313,74.000212 L85.4628647,74.000212 L85.4628647,84.3279653 L84.1036313,84.3279653 L84.1036313,79.7666687 L79.693988,79.7666687 Z M89.4135147,75.3352453 L89.4135147,84.3279653 L88.0530713,84.3279653 L88.0530713,74.000212 L95.098498,74.000212 L95.098498,84.3279653 L93.7368447,84.3279653 L93.7368447,75.3352453 L89.4135147,75.3352453 Z" id="Fill-111" fill="#24376D"></path>
                </g>
            </g>
        </g>
    </g>
</svg>